<?xml version="1.0" encoding="utf-8" standalone="no"?>
<!DOCTYPE svg PUBLIC "-//W3C//DTD SVG 1.1//EN"
  "http://www.w3.org/Graphics/SVG/1.1/DTD/svg11.dtd">
<svg xmlns:xlink="http://www.w3.org/1999/xlink" width="529.636396pt" height="498.091003pt" viewBox="0 0 529.636396 498.091003" xmlns="http://www.w3.org/2000/svg" version="1.1">
 <metadata>
  <rdf:RDF xmlns:dc="http://purl.org/dc/elements/1.1/" xmlns:cc="http://creativecommons.org/ns#" xmlns:rdf="http://www.w3.org/1999/02/22-rdf-syntax-ns#">
   <cc:Work>
    <dc:type rdf:resource="http://purl.org/dc/dcmitype/StillImage"/>
    <dc:date>2023-07-11T22:51:42.999402</dc:date>
    <dc:format>image/svg+xml</dc:format>
    <dc:creator>
     <cc:Agent>
      <dc:title>Matplotlib v3.7.1, https://matplotlib.org/</dc:title>
     </cc:Agent>
    </dc:creator>
   </cc:Work>
  </rdf:RDF>
 </metadata>
 <defs>
  <style type="text/css">*{stroke-linejoin: round; stroke-linecap: butt}</style>
 </defs>
 <g id="figure_1">
  <g id="patch_1">
   <path d="M 0 498.091003 
L 529.636396 498.091003 
L 529.636396 0 
L 0 0 
z
" style="fill: #ffffff"/>
  </g>
  <g id="axes_1">
   <g id="patch_2">
    <path d="M 106.076396 332.928125 
L 522.436396 332.928125 
L 522.436396 22.318125 
L 106.076396 22.318125 
z
" style="fill: #ffffff"/>
   </g>
   <g id="patch_3">
    <path d="M 116.485396 332.928125 
L 137.303396 332.928125 
L 137.303396 144.455473 
L 116.485396 144.455473 
z
" clip-path="url(#p14cba6550e)" style="fill: #0000ff"/>
   </g>
   <g id="patch_4">
    <path d="M 158.121396 332.928125 
L 178.939396 332.928125 
L 178.939396 149.023616 
L 158.121396 149.023616 
z
" clip-path="url(#p14cba6550e)" style="fill: #0000ff"/>
   </g>
   <g id="patch_5">
    <path d="M 199.757396 332.928125 
L 220.575396 332.928125 
L 220.575396 142.220707 
L 199.757396 142.220707 
z
" clip-path="url(#p14cba6550e)" style="fill: #0000ff"/>
   </g>
   <g id="patch_6">
    <path d="M 241.393396 332.928125 
L 262.211396 332.928125 
L 262.211396 153.108677 
L 241.393396 153.108677 
z
" clip-path="url(#p14cba6550e)" style="fill: #0000ff"/>
   </g>
   <g id="patch_7">
    <path d="M 283.029396 332.928125 
L 303.847396 332.928125 
L 303.847396 164.347392 
L 283.029396 164.347392 
z
" clip-path="url(#p14cba6550e)" style="fill: #0000ff"/>
   </g>
   <g id="patch_8">
    <path d="M 324.665396 332.928125 
L 345.483396 332.928125 
L 345.483396 168.070635 
L 324.665396 168.070635 
z
" clip-path="url(#p14cba6550e)" style="fill: #0000ff"/>
   </g>
   <g id="patch_9">
    <path d="M 366.301396 332.928125 
L 387.119396 332.928125 
L 387.119396 147.520412 
L 366.301396 147.520412 
z
" clip-path="url(#p14cba6550e)" style="fill: #0000ff"/>
   </g>
   <g id="patch_10">
    <path d="M 407.937396 332.928125 
L 428.755396 332.928125 
L 428.755396 135.102965 
L 407.937396 135.102965 
z
" clip-path="url(#p14cba6550e)" style="fill: #0000ff"/>
   </g>
   <g id="patch_11">
    <path d="M 449.573396 332.928125 
L 470.391396 332.928125 
L 470.391396 197.199386 
L 449.573396 197.199386 
z
" clip-path="url(#p14cba6550e)" style="fill: #0000ff"/>
   </g>
   <g id="patch_12">
    <path d="M 491.209396 332.928125 
L 512.027396 332.928125 
L 512.027396 179.422025 
L 491.209396 179.422025 
z
" clip-path="url(#p14cba6550e)" style="fill: #0000ff"/>
   </g>
   <g id="patch_13">
    <path d="M 116.485396 144.455473 
L 137.303396 144.455473 
L 137.303396 37.109077 
L 116.485396 37.109077 
z
" clip-path="url(#p14cba6550e)" style="fill: #ff0000"/>
   </g>
   <g id="patch_14">
    <path d="M 158.121396 149.023616 
L 178.939396 149.023616 
L 178.939396 37.109077 
L 158.121396 37.109077 
z
" clip-path="url(#p14cba6550e)" style="fill: #ff0000"/>
   </g>
   <g id="patch_15">
    <path d="M 199.757396 142.220707 
L 220.575396 142.220707 
L 220.575396 37.109077 
L 199.757396 37.109077 
z
" clip-path="url(#p14cba6550e)" style="fill: #ff0000"/>
   </g>
   <g id="patch_16">
    <path d="M 241.393396 153.108677 
L 262.211396 153.108677 
L 262.211396 37.109077 
L 241.393396 37.109077 
z
" clip-path="url(#p14cba6550e)" style="fill: #ff0000"/>
   </g>
   <g id="patch_17">
    <path d="M 283.029396 164.347392 
L 303.847396 164.347392 
L 303.847396 37.109077 
L 283.029396 37.109077 
z
" clip-path="url(#p14cba6550e)" style="fill: #ff0000"/>
   </g>
   <g id="patch_18">
    <path d="M 324.665396 168.070635 
L 345.483396 168.070635 
L 345.483396 37.109077 
L 324.665396 37.109077 
z
" clip-path="url(#p14cba6550e)" style="fill: #ff0000"/>
   </g>
   <g id="patch_19">
    <path d="M 366.301396 147.520412 
L 387.119396 147.520412 
L 387.119396 37.109077 
L 366.301396 37.109077 
z
" clip-path="url(#p14cba6550e)" style="fill: #ff0000"/>
   </g>
   <g id="patch_20">
    <path d="M 407.937396 135.102965 
L 428.755396 135.102965 
L 428.755396 37.109077 
L 407.937396 37.109077 
z
" clip-path="url(#p14cba6550e)" style="fill: #ff0000"/>
   </g>
   <g id="patch_21">
    <path d="M 449.573396 197.199386 
L 470.391396 197.199386 
L 470.391396 37.109077 
L 449.573396 37.109077 
z
" clip-path="url(#p14cba6550e)" style="fill: #ff0000"/>
   </g>
   <g id="patch_22">
    <path d="M 491.209396 179.422025 
L 512.027396 179.422025 
L 512.027396 37.109077 
L 491.209396 37.109077 
z
" clip-path="url(#p14cba6550e)" style="fill: #ff0000"/>
   </g>
   <g id="matplotlib.axis_1">
    <g id="xtick_1">
     <g id="line2d_1">
      <defs>
       <path id="md5a7a28efb" d="M 0 0 
L 0 3.5 
" style="stroke: #000000; stroke-width: 0.8"/>
      </defs>
      <g>
       <use xlink:href="#md5a7a28efb" x="126.894396" y="332.928125" style="stroke: #000000; stroke-width: 0.8"/>
      </g>
     </g>
     <g id="text_1">
      <!-- 0_relationship_together_be_talk -->
      <g transform="translate(12.572907 457.955295) rotate(-45) scale(0.1 -0.1)">
       <defs>
        <path id="DejaVuSans-30" d="M 2034 4250 
Q 1547 4250 1301 3770 
Q 1056 3291 1056 2328 
Q 1056 1369 1301 889 
Q 1547 409 2034 409 
Q 2525 409 2770 889 
Q 3016 1369 3016 2328 
Q 3016 3291 2770 3770 
Q 2525 4250 2034 4250 
z
M 2034 4750 
Q 2819 4750 3233 4129 
Q 3647 3509 3647 2328 
Q 3647 1150 3233 529 
Q 2819 -91 2034 -91 
Q 1250 -91 836 529 
Q 422 1150 422 2328 
Q 422 3509 836 4129 
Q 1250 4750 2034 4750 
z
" transform="scale(0.015625)"/>
        <path id="DejaVuSans-5f" d="M 3263 -1063 
L 3263 -1509 
L -63 -1509 
L -63 -1063 
L 3263 -1063 
z
" transform="scale(0.015625)"/>
        <path id="DejaVuSans-72" d="M 2631 2963 
Q 2534 3019 2420 3045 
Q 2306 3072 2169 3072 
Q 1681 3072 1420 2755 
Q 1159 2438 1159 1844 
L 1159 0 
L 581 0 
L 581 3500 
L 1159 3500 
L 1159 2956 
Q 1341 3275 1631 3429 
Q 1922 3584 2338 3584 
Q 2397 3584 2469 3576 
Q 2541 3569 2628 3553 
L 2631 2963 
z
" transform="scale(0.015625)"/>
        <path id="DejaVuSans-65" d="M 3597 1894 
L 3597 1613 
L 953 1613 
Q 991 1019 1311 708 
Q 1631 397 2203 397 
Q 2534 397 2845 478 
Q 3156 559 3463 722 
L 3463 178 
Q 3153 47 2828 -22 
Q 2503 -91 2169 -91 
Q 1331 -91 842 396 
Q 353 884 353 1716 
Q 353 2575 817 3079 
Q 1281 3584 2069 3584 
Q 2775 3584 3186 3129 
Q 3597 2675 3597 1894 
z
M 3022 2063 
Q 3016 2534 2758 2815 
Q 2500 3097 2075 3097 
Q 1594 3097 1305 2825 
Q 1016 2553 972 2059 
L 3022 2063 
z
" transform="scale(0.015625)"/>
        <path id="DejaVuSans-6c" d="M 603 4863 
L 1178 4863 
L 1178 0 
L 603 0 
L 603 4863 
z
" transform="scale(0.015625)"/>
        <path id="DejaVuSans-61" d="M 2194 1759 
Q 1497 1759 1228 1600 
Q 959 1441 959 1056 
Q 959 750 1161 570 
Q 1363 391 1709 391 
Q 2188 391 2477 730 
Q 2766 1069 2766 1631 
L 2766 1759 
L 2194 1759 
z
M 3341 1997 
L 3341 0 
L 2766 0 
L 2766 531 
Q 2569 213 2275 61 
Q 1981 -91 1556 -91 
Q 1019 -91 701 211 
Q 384 513 384 1019 
Q 384 1609 779 1909 
Q 1175 2209 1959 2209 
L 2766 2209 
L 2766 2266 
Q 2766 2663 2505 2880 
Q 2244 3097 1772 3097 
Q 1472 3097 1187 3025 
Q 903 2953 641 2809 
L 641 3341 
Q 956 3463 1253 3523 
Q 1550 3584 1831 3584 
Q 2591 3584 2966 3190 
Q 3341 2797 3341 1997 
z
" transform="scale(0.015625)"/>
        <path id="DejaVuSans-74" d="M 1172 4494 
L 1172 3500 
L 2356 3500 
L 2356 3053 
L 1172 3053 
L 1172 1153 
Q 1172 725 1289 603 
Q 1406 481 1766 481 
L 2356 481 
L 2356 0 
L 1766 0 
Q 1100 0 847 248 
Q 594 497 594 1153 
L 594 3053 
L 172 3053 
L 172 3500 
L 594 3500 
L 594 4494 
L 1172 4494 
z
" transform="scale(0.015625)"/>
        <path id="DejaVuSans-69" d="M 603 3500 
L 1178 3500 
L 1178 0 
L 603 0 
L 603 3500 
z
M 603 4863 
L 1178 4863 
L 1178 4134 
L 603 4134 
L 603 4863 
z
" transform="scale(0.015625)"/>
        <path id="DejaVuSans-6f" d="M 1959 3097 
Q 1497 3097 1228 2736 
Q 959 2375 959 1747 
Q 959 1119 1226 758 
Q 1494 397 1959 397 
Q 2419 397 2687 759 
Q 2956 1122 2956 1747 
Q 2956 2369 2687 2733 
Q 2419 3097 1959 3097 
z
M 1959 3584 
Q 2709 3584 3137 3096 
Q 3566 2609 3566 1747 
Q 3566 888 3137 398 
Q 2709 -91 1959 -91 
Q 1206 -91 779 398 
Q 353 888 353 1747 
Q 353 2609 779 3096 
Q 1206 3584 1959 3584 
z
" transform="scale(0.015625)"/>
        <path id="DejaVuSans-6e" d="M 3513 2113 
L 3513 0 
L 2938 0 
L 2938 2094 
Q 2938 2591 2744 2837 
Q 2550 3084 2163 3084 
Q 1697 3084 1428 2787 
Q 1159 2491 1159 1978 
L 1159 0 
L 581 0 
L 581 3500 
L 1159 3500 
L 1159 2956 
Q 1366 3272 1645 3428 
Q 1925 3584 2291 3584 
Q 2894 3584 3203 3211 
Q 3513 2838 3513 2113 
z
" transform="scale(0.015625)"/>
        <path id="DejaVuSans-73" d="M 2834 3397 
L 2834 2853 
Q 2591 2978 2328 3040 
Q 2066 3103 1784 3103 
Q 1356 3103 1142 2972 
Q 928 2841 928 2578 
Q 928 2378 1081 2264 
Q 1234 2150 1697 2047 
L 1894 2003 
Q 2506 1872 2764 1633 
Q 3022 1394 3022 966 
Q 3022 478 2636 193 
Q 2250 -91 1575 -91 
Q 1294 -91 989 -36 
Q 684 19 347 128 
L 347 722 
Q 666 556 975 473 
Q 1284 391 1588 391 
Q 1994 391 2212 530 
Q 2431 669 2431 922 
Q 2431 1156 2273 1281 
Q 2116 1406 1581 1522 
L 1381 1569 
Q 847 1681 609 1914 
Q 372 2147 372 2553 
Q 372 3047 722 3315 
Q 1072 3584 1716 3584 
Q 2034 3584 2315 3537 
Q 2597 3491 2834 3397 
z
" transform="scale(0.015625)"/>
        <path id="DejaVuSans-68" d="M 3513 2113 
L 3513 0 
L 2938 0 
L 2938 2094 
Q 2938 2591 2744 2837 
Q 2550 3084 2163 3084 
Q 1697 3084 1428 2787 
Q 1159 2491 1159 1978 
L 1159 0 
L 581 0 
L 581 4863 
L 1159 4863 
L 1159 2956 
Q 1366 3272 1645 3428 
Q 1925 3584 2291 3584 
Q 2894 3584 3203 3211 
Q 3513 2838 3513 2113 
z
" transform="scale(0.015625)"/>
        <path id="DejaVuSans-70" d="M 1159 525 
L 1159 -1331 
L 581 -1331 
L 581 3500 
L 1159 3500 
L 1159 2969 
Q 1341 3281 1617 3432 
Q 1894 3584 2278 3584 
Q 2916 3584 3314 3078 
Q 3713 2572 3713 1747 
Q 3713 922 3314 415 
Q 2916 -91 2278 -91 
Q 1894 -91 1617 61 
Q 1341 213 1159 525 
z
M 3116 1747 
Q 3116 2381 2855 2742 
Q 2594 3103 2138 3103 
Q 1681 3103 1420 2742 
Q 1159 2381 1159 1747 
Q 1159 1113 1420 752 
Q 1681 391 2138 391 
Q 2594 391 2855 752 
Q 3116 1113 3116 1747 
z
" transform="scale(0.015625)"/>
        <path id="DejaVuSans-67" d="M 2906 1791 
Q 2906 2416 2648 2759 
Q 2391 3103 1925 3103 
Q 1463 3103 1205 2759 
Q 947 2416 947 1791 
Q 947 1169 1205 825 
Q 1463 481 1925 481 
Q 2391 481 2648 825 
Q 2906 1169 2906 1791 
z
M 3481 434 
Q 3481 -459 3084 -895 
Q 2688 -1331 1869 -1331 
Q 1566 -1331 1297 -1286 
Q 1028 -1241 775 -1147 
L 775 -588 
Q 1028 -725 1275 -790 
Q 1522 -856 1778 -856 
Q 2344 -856 2625 -561 
Q 2906 -266 2906 331 
L 2906 616 
Q 2728 306 2450 153 
Q 2172 0 1784 0 
Q 1141 0 747 490 
Q 353 981 353 1791 
Q 353 2603 747 3093 
Q 1141 3584 1784 3584 
Q 2172 3584 2450 3431 
Q 2728 3278 2906 2969 
L 2906 3500 
L 3481 3500 
L 3481 434 
z
" transform="scale(0.015625)"/>
        <path id="DejaVuSans-62" d="M 3116 1747 
Q 3116 2381 2855 2742 
Q 2594 3103 2138 3103 
Q 1681 3103 1420 2742 
Q 1159 2381 1159 1747 
Q 1159 1113 1420 752 
Q 1681 391 2138 391 
Q 2594 391 2855 752 
Q 3116 1113 3116 1747 
z
M 1159 2969 
Q 1341 3281 1617 3432 
Q 1894 3584 2278 3584 
Q 2916 3584 3314 3078 
Q 3713 2572 3713 1747 
Q 3713 922 3314 415 
Q 2916 -91 2278 -91 
Q 1894 -91 1617 61 
Q 1341 213 1159 525 
L 1159 0 
L 581 0 
L 581 4863 
L 1159 4863 
L 1159 2969 
z
" transform="scale(0.015625)"/>
        <path id="DejaVuSans-6b" d="M 581 4863 
L 1159 4863 
L 1159 1991 
L 2875 3500 
L 3609 3500 
L 1753 1863 
L 3688 0 
L 2938 0 
L 1159 1709 
L 1159 0 
L 581 0 
L 581 4863 
z
" transform="scale(0.015625)"/>
       </defs>
       <use xlink:href="#DejaVuSans-30"/>
       <use xlink:href="#DejaVuSans-5f" x="63.623047"/>
       <use xlink:href="#DejaVuSans-72" x="113.623047"/>
       <use xlink:href="#DejaVuSans-65" x="152.486328"/>
       <use xlink:href="#DejaVuSans-6c" x="214.009766"/>
       <use xlink:href="#DejaVuSans-61" x="241.792969"/>
       <use xlink:href="#DejaVuSans-74" x="303.072266"/>
       <use xlink:href="#DejaVuSans-69" x="342.28125"/>
       <use xlink:href="#DejaVuSans-6f" x="370.064453"/>
       <use xlink:href="#DejaVuSans-6e" x="431.246094"/>
       <use xlink:href="#DejaVuSans-73" x="494.625"/>
       <use xlink:href="#DejaVuSans-68" x="546.724609"/>
       <use xlink:href="#DejaVuSans-69" x="610.103516"/>
       <use xlink:href="#DejaVuSans-70" x="637.886719"/>
       <use xlink:href="#DejaVuSans-5f" x="701.363281"/>
       <use xlink:href="#DejaVuSans-74" x="751.363281"/>
       <use xlink:href="#DejaVuSans-6f" x="790.572266"/>
       <use xlink:href="#DejaVuSans-67" x="851.753906"/>
       <use xlink:href="#DejaVuSans-65" x="915.230469"/>
       <use xlink:href="#DejaVuSans-74" x="976.753906"/>
       <use xlink:href="#DejaVuSans-68" x="1015.962891"/>
       <use xlink:href="#DejaVuSans-65" x="1079.341797"/>
       <use xlink:href="#DejaVuSans-72" x="1140.865234"/>
       <use xlink:href="#DejaVuSans-5f" x="1181.978516"/>
       <use xlink:href="#DejaVuSans-62" x="1231.978516"/>
       <use xlink:href="#DejaVuSans-65" x="1295.455078"/>
       <use xlink:href="#DejaVuSans-5f" x="1356.978516"/>
       <use xlink:href="#DejaVuSans-74" x="1406.978516"/>
       <use xlink:href="#DejaVuSans-61" x="1446.1875"/>
       <use xlink:href="#DejaVuSans-6c" x="1507.466797"/>
       <use xlink:href="#DejaVuSans-6b" x="1535.25"/>
      </g>
     </g>
    </g>
    <g id="xtick_2">
     <g id="line2d_2">
      <g>
       <use xlink:href="#md5a7a28efb" x="168.530396" y="332.928125" style="stroke: #000000; stroke-width: 0.8"/>
      </g>
     </g>
     <g id="text_2">
      <!-- 1_confidence_be_social_conversation -->
      <g transform="translate(34.812084 477.352118) rotate(-45) scale(0.1 -0.1)">
       <defs>
        <path id="DejaVuSans-31" d="M 794 531 
L 1825 531 
L 1825 4091 
L 703 3866 
L 703 4441 
L 1819 4666 
L 2450 4666 
L 2450 531 
L 3481 531 
L 3481 0 
L 794 0 
L 794 531 
z
" transform="scale(0.015625)"/>
        <path id="DejaVuSans-63" d="M 3122 3366 
L 3122 2828 
Q 2878 2963 2633 3030 
Q 2388 3097 2138 3097 
Q 1578 3097 1268 2742 
Q 959 2388 959 1747 
Q 959 1106 1268 751 
Q 1578 397 2138 397 
Q 2388 397 2633 464 
Q 2878 531 3122 666 
L 3122 134 
Q 2881 22 2623 -34 
Q 2366 -91 2075 -91 
Q 1284 -91 818 406 
Q 353 903 353 1747 
Q 353 2603 823 3093 
Q 1294 3584 2113 3584 
Q 2378 3584 2631 3529 
Q 2884 3475 3122 3366 
z
" transform="scale(0.015625)"/>
        <path id="DejaVuSans-66" d="M 2375 4863 
L 2375 4384 
L 1825 4384 
Q 1516 4384 1395 4259 
Q 1275 4134 1275 3809 
L 1275 3500 
L 2222 3500 
L 2222 3053 
L 1275 3053 
L 1275 0 
L 697 0 
L 697 3053 
L 147 3053 
L 147 3500 
L 697 3500 
L 697 3744 
Q 697 4328 969 4595 
Q 1241 4863 1831 4863 
L 2375 4863 
z
" transform="scale(0.015625)"/>
        <path id="DejaVuSans-64" d="M 2906 2969 
L 2906 4863 
L 3481 4863 
L 3481 0 
L 2906 0 
L 2906 525 
Q 2725 213 2448 61 
Q 2172 -91 1784 -91 
Q 1150 -91 751 415 
Q 353 922 353 1747 
Q 353 2572 751 3078 
Q 1150 3584 1784 3584 
Q 2172 3584 2448 3432 
Q 2725 3281 2906 2969 
z
M 947 1747 
Q 947 1113 1208 752 
Q 1469 391 1925 391 
Q 2381 391 2643 752 
Q 2906 1113 2906 1747 
Q 2906 2381 2643 2742 
Q 2381 3103 1925 3103 
Q 1469 3103 1208 2742 
Q 947 2381 947 1747 
z
" transform="scale(0.015625)"/>
        <path id="DejaVuSans-76" d="M 191 3500 
L 800 3500 
L 1894 563 
L 2988 3500 
L 3597 3500 
L 2284 0 
L 1503 0 
L 191 3500 
z
" transform="scale(0.015625)"/>
       </defs>
       <use xlink:href="#DejaVuSans-31"/>
       <use xlink:href="#DejaVuSans-5f" x="63.623047"/>
       <use xlink:href="#DejaVuSans-63" x="113.623047"/>
       <use xlink:href="#DejaVuSans-6f" x="168.603516"/>
       <use xlink:href="#DejaVuSans-6e" x="229.785156"/>
       <use xlink:href="#DejaVuSans-66" x="293.164062"/>
       <use xlink:href="#DejaVuSans-69" x="328.369141"/>
       <use xlink:href="#DejaVuSans-64" x="356.152344"/>
       <use xlink:href="#DejaVuSans-65" x="419.628906"/>
       <use xlink:href="#DejaVuSans-6e" x="481.152344"/>
       <use xlink:href="#DejaVuSans-63" x="544.53125"/>
       <use xlink:href="#DejaVuSans-65" x="599.511719"/>
       <use xlink:href="#DejaVuSans-5f" x="661.035156"/>
       <use xlink:href="#DejaVuSans-62" x="711.035156"/>
       <use xlink:href="#DejaVuSans-65" x="774.511719"/>
       <use xlink:href="#DejaVuSans-5f" x="836.035156"/>
       <use xlink:href="#DejaVuSans-73" x="886.035156"/>
       <use xlink:href="#DejaVuSans-6f" x="938.134766"/>
       <use xlink:href="#DejaVuSans-63" x="999.316406"/>
       <use xlink:href="#DejaVuSans-69" x="1054.296875"/>
       <use xlink:href="#DejaVuSans-61" x="1082.080078"/>
       <use xlink:href="#DejaVuSans-6c" x="1143.359375"/>
       <use xlink:href="#DejaVuSans-5f" x="1171.142578"/>
       <use xlink:href="#DejaVuSans-63" x="1221.142578"/>
       <use xlink:href="#DejaVuSans-6f" x="1276.123047"/>
       <use xlink:href="#DejaVuSans-6e" x="1337.304688"/>
       <use xlink:href="#DejaVuSans-76" x="1400.683594"/>
       <use xlink:href="#DejaVuSans-65" x="1459.863281"/>
       <use xlink:href="#DejaVuSans-72" x="1521.386719"/>
       <use xlink:href="#DejaVuSans-73" x="1562.5"/>
       <use xlink:href="#DejaVuSans-61" x="1614.599609"/>
       <use xlink:href="#DejaVuSans-74" x="1675.878906"/>
       <use xlink:href="#DejaVuSans-69" x="1715.087891"/>
       <use xlink:href="#DejaVuSans-6f" x="1742.871094"/>
       <use xlink:href="#DejaVuSans-6e" x="1804.052734"/>
      </g>
     </g>
    </g>
    <g id="xtick_3">
     <g id="line2d_3">
      <g>
       <use xlink:href="#md5a7a28efb" x="210.166396" y="332.928125" style="stroke: #000000; stroke-width: 0.8"/>
      </g>
     </g>
     <g id="text_3">
      <!-- 2_virgin_sex_orgasm_sexual -->
      <g transform="translate(108.516481 445.283721) rotate(-45) scale(0.1 -0.1)">
       <defs>
        <path id="DejaVuSans-32" d="M 1228 531 
L 3431 531 
L 3431 0 
L 469 0 
L 469 531 
Q 828 903 1448 1529 
Q 2069 2156 2228 2338 
Q 2531 2678 2651 2914 
Q 2772 3150 2772 3378 
Q 2772 3750 2511 3984 
Q 2250 4219 1831 4219 
Q 1534 4219 1204 4116 
Q 875 4013 500 3803 
L 500 4441 
Q 881 4594 1212 4672 
Q 1544 4750 1819 4750 
Q 2544 4750 2975 4387 
Q 3406 4025 3406 3419 
Q 3406 3131 3298 2873 
Q 3191 2616 2906 2266 
Q 2828 2175 2409 1742 
Q 1991 1309 1228 531 
z
" transform="scale(0.015625)"/>
        <path id="DejaVuSans-78" d="M 3513 3500 
L 2247 1797 
L 3578 0 
L 2900 0 
L 1881 1375 
L 863 0 
L 184 0 
L 1544 1831 
L 300 3500 
L 978 3500 
L 1906 2253 
L 2834 3500 
L 3513 3500 
z
" transform="scale(0.015625)"/>
        <path id="DejaVuSans-6d" d="M 3328 2828 
Q 3544 3216 3844 3400 
Q 4144 3584 4550 3584 
Q 5097 3584 5394 3201 
Q 5691 2819 5691 2113 
L 5691 0 
L 5113 0 
L 5113 2094 
Q 5113 2597 4934 2840 
Q 4756 3084 4391 3084 
Q 3944 3084 3684 2787 
Q 3425 2491 3425 1978 
L 3425 0 
L 2847 0 
L 2847 2094 
Q 2847 2600 2669 2842 
Q 2491 3084 2119 3084 
Q 1678 3084 1418 2786 
Q 1159 2488 1159 1978 
L 1159 0 
L 581 0 
L 581 3500 
L 1159 3500 
L 1159 2956 
Q 1356 3278 1631 3431 
Q 1906 3584 2284 3584 
Q 2666 3584 2933 3390 
Q 3200 3197 3328 2828 
z
" transform="scale(0.015625)"/>
        <path id="DejaVuSans-75" d="M 544 1381 
L 544 3500 
L 1119 3500 
L 1119 1403 
Q 1119 906 1312 657 
Q 1506 409 1894 409 
Q 2359 409 2629 706 
Q 2900 1003 2900 1516 
L 2900 3500 
L 3475 3500 
L 3475 0 
L 2900 0 
L 2900 538 
Q 2691 219 2414 64 
Q 2138 -91 1772 -91 
Q 1169 -91 856 284 
Q 544 659 544 1381 
z
M 1991 3584 
L 1991 3584 
z
" transform="scale(0.015625)"/>
       </defs>
       <use xlink:href="#DejaVuSans-32"/>
       <use xlink:href="#DejaVuSans-5f" x="63.623047"/>
       <use xlink:href="#DejaVuSans-76" x="113.623047"/>
       <use xlink:href="#DejaVuSans-69" x="172.802734"/>
       <use xlink:href="#DejaVuSans-72" x="200.585938"/>
       <use xlink:href="#DejaVuSans-67" x="239.949219"/>
       <use xlink:href="#DejaVuSans-69" x="303.425781"/>
       <use xlink:href="#DejaVuSans-6e" x="331.208984"/>
       <use xlink:href="#DejaVuSans-5f" x="394.587891"/>
       <use xlink:href="#DejaVuSans-73" x="444.587891"/>
       <use xlink:href="#DejaVuSans-65" x="496.6875"/>
       <use xlink:href="#DejaVuSans-78" x="556.460938"/>
       <use xlink:href="#DejaVuSans-5f" x="615.640625"/>
       <use xlink:href="#DejaVuSans-6f" x="665.640625"/>
       <use xlink:href="#DejaVuSans-72" x="726.822266"/>
       <use xlink:href="#DejaVuSans-67" x="766.185547"/>
       <use xlink:href="#DejaVuSans-61" x="829.662109"/>
       <use xlink:href="#DejaVuSans-73" x="890.941406"/>
       <use xlink:href="#DejaVuSans-6d" x="943.041016"/>
       <use xlink:href="#DejaVuSans-5f" x="1040.453125"/>
       <use xlink:href="#DejaVuSans-73" x="1090.453125"/>
       <use xlink:href="#DejaVuSans-65" x="1142.552734"/>
       <use xlink:href="#DejaVuSans-78" x="1202.326172"/>
       <use xlink:href="#DejaVuSans-75" x="1261.505859"/>
       <use xlink:href="#DejaVuSans-61" x="1324.884766"/>
       <use xlink:href="#DejaVuSans-6c" x="1386.164062"/>
      </g>
     </g>
    </g>
    <g id="xtick_4">
     <g id="line2d_4">
      <g>
       <use xlink:href="#md5a7a28efb" x="251.802396" y="332.928125" style="stroke: #000000; stroke-width: 0.8"/>
      </g>
     </g>
     <g id="text_4">
      <!-- 3_feminism_feminist_gender_woman -->
      <g transform="translate(119.311577 476.124625) rotate(-45) scale(0.1 -0.1)">
       <defs>
        <path id="DejaVuSans-33" d="M 2597 2516 
Q 3050 2419 3304 2112 
Q 3559 1806 3559 1356 
Q 3559 666 3084 287 
Q 2609 -91 1734 -91 
Q 1441 -91 1130 -33 
Q 819 25 488 141 
L 488 750 
Q 750 597 1062 519 
Q 1375 441 1716 441 
Q 2309 441 2620 675 
Q 2931 909 2931 1356 
Q 2931 1769 2642 2001 
Q 2353 2234 1838 2234 
L 1294 2234 
L 1294 2753 
L 1863 2753 
Q 2328 2753 2575 2939 
Q 2822 3125 2822 3475 
Q 2822 3834 2567 4026 
Q 2313 4219 1838 4219 
Q 1578 4219 1281 4162 
Q 984 4106 628 3988 
L 628 4550 
Q 988 4650 1302 4700 
Q 1616 4750 1894 4750 
Q 2613 4750 3031 4423 
Q 3450 4097 3450 3541 
Q 3450 3153 3228 2886 
Q 3006 2619 2597 2516 
z
" transform="scale(0.015625)"/>
        <path id="DejaVuSans-77" d="M 269 3500 
L 844 3500 
L 1563 769 
L 2278 3500 
L 2956 3500 
L 3675 769 
L 4391 3500 
L 4966 3500 
L 4050 0 
L 3372 0 
L 2619 2869 
L 1863 0 
L 1184 0 
L 269 3500 
z
" transform="scale(0.015625)"/>
       </defs>
       <use xlink:href="#DejaVuSans-33"/>
       <use xlink:href="#DejaVuSans-5f" x="63.623047"/>
       <use xlink:href="#DejaVuSans-66" x="113.623047"/>
       <use xlink:href="#DejaVuSans-65" x="148.828125"/>
       <use xlink:href="#DejaVuSans-6d" x="210.351562"/>
       <use xlink:href="#DejaVuSans-69" x="307.763672"/>
       <use xlink:href="#DejaVuSans-6e" x="335.546875"/>
       <use xlink:href="#DejaVuSans-69" x="398.925781"/>
       <use xlink:href="#DejaVuSans-73" x="426.708984"/>
       <use xlink:href="#DejaVuSans-6d" x="478.808594"/>
       <use xlink:href="#DejaVuSans-5f" x="576.220703"/>
       <use xlink:href="#DejaVuSans-66" x="626.220703"/>
       <use xlink:href="#DejaVuSans-65" x="661.425781"/>
       <use xlink:href="#DejaVuSans-6d" x="722.949219"/>
       <use xlink:href="#DejaVuSans-69" x="820.361328"/>
       <use xlink:href="#DejaVuSans-6e" x="848.144531"/>
       <use xlink:href="#DejaVuSans-69" x="911.523438"/>
       <use xlink:href="#DejaVuSans-73" x="939.306641"/>
       <use xlink:href="#DejaVuSans-74" x="991.40625"/>
       <use xlink:href="#DejaVuSans-5f" x="1030.615234"/>
       <use xlink:href="#DejaVuSans-67" x="1080.615234"/>
       <use xlink:href="#DejaVuSans-65" x="1144.091797"/>
       <use xlink:href="#DejaVuSans-6e" x="1205.615234"/>
       <use xlink:href="#DejaVuSans-64" x="1268.994141"/>
       <use xlink:href="#DejaVuSans-65" x="1332.470703"/>
       <use xlink:href="#DejaVuSans-72" x="1393.994141"/>
       <use xlink:href="#DejaVuSans-5f" x="1435.107422"/>
       <use xlink:href="#DejaVuSans-77" x="1485.107422"/>
       <use xlink:href="#DejaVuSans-6f" x="1566.894531"/>
       <use xlink:href="#DejaVuSans-6d" x="1628.076172"/>
       <use xlink:href="#DejaVuSans-61" x="1725.488281"/>
       <use xlink:href="#DejaVuSans-6e" x="1786.767578"/>
      </g>
     </g>
    </g>
    <g id="xtick_5">
     <g id="line2d_5">
      <g>
       <use xlink:href="#md5a7a28efb" x="293.438396" y="332.928125" style="stroke: #000000; stroke-width: 0.8"/>
      </g>
     </g>
     <g id="text_5">
      <!-- 4_attractive_overweight_fat_look -->
      <g transform="translate(174.935033 462.137169) rotate(-45) scale(0.1 -0.1)">
       <defs>
        <path id="DejaVuSans-34" d="M 2419 4116 
L 825 1625 
L 2419 1625 
L 2419 4116 
z
M 2253 4666 
L 3047 4666 
L 3047 1625 
L 3713 1625 
L 3713 1100 
L 3047 1100 
L 3047 0 
L 2419 0 
L 2419 1100 
L 313 1100 
L 313 1709 
L 2253 4666 
z
" transform="scale(0.015625)"/>
       </defs>
       <use xlink:href="#DejaVuSans-34"/>
       <use xlink:href="#DejaVuSans-5f" x="63.623047"/>
       <use xlink:href="#DejaVuSans-61" x="113.623047"/>
       <use xlink:href="#DejaVuSans-74" x="174.902344"/>
       <use xlink:href="#DejaVuSans-74" x="214.111328"/>
       <use xlink:href="#DejaVuSans-72" x="253.320312"/>
       <use xlink:href="#DejaVuSans-61" x="294.433594"/>
       <use xlink:href="#DejaVuSans-63" x="355.712891"/>
       <use xlink:href="#DejaVuSans-74" x="410.693359"/>
       <use xlink:href="#DejaVuSans-69" x="449.902344"/>
       <use xlink:href="#DejaVuSans-76" x="477.685547"/>
       <use xlink:href="#DejaVuSans-65" x="536.865234"/>
       <use xlink:href="#DejaVuSans-5f" x="598.388672"/>
       <use xlink:href="#DejaVuSans-6f" x="648.388672"/>
       <use xlink:href="#DejaVuSans-76" x="709.570312"/>
       <use xlink:href="#DejaVuSans-65" x="768.75"/>
       <use xlink:href="#DejaVuSans-72" x="830.273438"/>
       <use xlink:href="#DejaVuSans-77" x="871.386719"/>
       <use xlink:href="#DejaVuSans-65" x="953.173828"/>
       <use xlink:href="#DejaVuSans-69" x="1014.697266"/>
       <use xlink:href="#DejaVuSans-67" x="1042.480469"/>
       <use xlink:href="#DejaVuSans-68" x="1105.957031"/>
       <use xlink:href="#DejaVuSans-74" x="1169.335938"/>
       <use xlink:href="#DejaVuSans-5f" x="1208.544922"/>
       <use xlink:href="#DejaVuSans-66" x="1258.544922"/>
       <use xlink:href="#DejaVuSans-61" x="1293.75"/>
       <use xlink:href="#DejaVuSans-74" x="1355.029297"/>
       <use xlink:href="#DejaVuSans-5f" x="1394.238281"/>
       <use xlink:href="#DejaVuSans-6c" x="1444.238281"/>
       <use xlink:href="#DejaVuSans-6f" x="1472.021484"/>
       <use xlink:href="#DejaVuSans-6f" x="1533.203125"/>
       <use xlink:href="#DejaVuSans-6b" x="1594.384766"/>
      </g>
     </g>
    </g>
    <g id="xtick_6">
     <g id="line2d_6">
      <g>
       <use xlink:href="#md5a7a28efb" x="335.074396" y="332.928125" style="stroke: #000000; stroke-width: 0.8"/>
      </g>
     </g>
     <g id="text_6">
      <!-- 5_parent_father_dad_family -->
      <g transform="translate(235.122642 443.58556) rotate(-45) scale(0.1 -0.1)">
       <defs>
        <path id="DejaVuSans-35" d="M 691 4666 
L 3169 4666 
L 3169 4134 
L 1269 4134 
L 1269 2991 
Q 1406 3038 1543 3061 
Q 1681 3084 1819 3084 
Q 2600 3084 3056 2656 
Q 3513 2228 3513 1497 
Q 3513 744 3044 326 
Q 2575 -91 1722 -91 
Q 1428 -91 1123 -41 
Q 819 9 494 109 
L 494 744 
Q 775 591 1075 516 
Q 1375 441 1709 441 
Q 2250 441 2565 725 
Q 2881 1009 2881 1497 
Q 2881 1984 2565 2268 
Q 2250 2553 1709 2553 
Q 1456 2553 1204 2497 
Q 953 2441 691 2322 
L 691 4666 
z
" transform="scale(0.015625)"/>
        <path id="DejaVuSans-79" d="M 2059 -325 
Q 1816 -950 1584 -1140 
Q 1353 -1331 966 -1331 
L 506 -1331 
L 506 -850 
L 844 -850 
Q 1081 -850 1212 -737 
Q 1344 -625 1503 -206 
L 1606 56 
L 191 3500 
L 800 3500 
L 1894 763 
L 2988 3500 
L 3597 3500 
L 2059 -325 
z
" transform="scale(0.015625)"/>
       </defs>
       <use xlink:href="#DejaVuSans-35"/>
       <use xlink:href="#DejaVuSans-5f" x="63.623047"/>
       <use xlink:href="#DejaVuSans-70" x="113.623047"/>
       <use xlink:href="#DejaVuSans-61" x="177.099609"/>
       <use xlink:href="#DejaVuSans-72" x="238.378906"/>
       <use xlink:href="#DejaVuSans-65" x="277.242188"/>
       <use xlink:href="#DejaVuSans-6e" x="338.765625"/>
       <use xlink:href="#DejaVuSans-74" x="402.144531"/>
       <use xlink:href="#DejaVuSans-5f" x="441.353516"/>
       <use xlink:href="#DejaVuSans-66" x="491.353516"/>
       <use xlink:href="#DejaVuSans-61" x="526.558594"/>
       <use xlink:href="#DejaVuSans-74" x="587.837891"/>
       <use xlink:href="#DejaVuSans-68" x="627.046875"/>
       <use xlink:href="#DejaVuSans-65" x="690.425781"/>
       <use xlink:href="#DejaVuSans-72" x="751.949219"/>
       <use xlink:href="#DejaVuSans-5f" x="793.0625"/>
       <use xlink:href="#DejaVuSans-64" x="843.0625"/>
       <use xlink:href="#DejaVuSans-61" x="906.539062"/>
       <use xlink:href="#DejaVuSans-64" x="967.818359"/>
       <use xlink:href="#DejaVuSans-5f" x="1031.294922"/>
       <use xlink:href="#DejaVuSans-66" x="1081.294922"/>
       <use xlink:href="#DejaVuSans-61" x="1116.5"/>
       <use xlink:href="#DejaVuSans-6d" x="1177.779297"/>
       <use xlink:href="#DejaVuSans-69" x="1275.191406"/>
       <use xlink:href="#DejaVuSans-6c" x="1302.974609"/>
       <use xlink:href="#DejaVuSans-79" x="1330.757812"/>
      </g>
     </g>
    </g>
    <g id="xtick_7">
     <g id="line2d_7">
      <g>
       <use xlink:href="#md5a7a28efb" x="376.710396" y="332.928125" style="stroke: #000000; stroke-width: 0.8"/>
      </g>
     </g>
     <g id="text_7">
      <!-- 6_dating_relationship_sexual_sex -->
      <g transform="translate(257.343037 463.001165) rotate(-45) scale(0.1 -0.1)">
       <defs>
        <path id="DejaVuSans-36" d="M 2113 2584 
Q 1688 2584 1439 2293 
Q 1191 2003 1191 1497 
Q 1191 994 1439 701 
Q 1688 409 2113 409 
Q 2538 409 2786 701 
Q 3034 994 3034 1497 
Q 3034 2003 2786 2293 
Q 2538 2584 2113 2584 
z
M 3366 4563 
L 3366 3988 
Q 3128 4100 2886 4159 
Q 2644 4219 2406 4219 
Q 1781 4219 1451 3797 
Q 1122 3375 1075 2522 
Q 1259 2794 1537 2939 
Q 1816 3084 2150 3084 
Q 2853 3084 3261 2657 
Q 3669 2231 3669 1497 
Q 3669 778 3244 343 
Q 2819 -91 2113 -91 
Q 1303 -91 875 529 
Q 447 1150 447 2328 
Q 447 3434 972 4092 
Q 1497 4750 2381 4750 
Q 2619 4750 2861 4703 
Q 3103 4656 3366 4563 
z
" transform="scale(0.015625)"/>
       </defs>
       <use xlink:href="#DejaVuSans-36"/>
       <use xlink:href="#DejaVuSans-5f" x="63.623047"/>
       <use xlink:href="#DejaVuSans-64" x="113.623047"/>
       <use xlink:href="#DejaVuSans-61" x="177.099609"/>
       <use xlink:href="#DejaVuSans-74" x="238.378906"/>
       <use xlink:href="#DejaVuSans-69" x="277.587891"/>
       <use xlink:href="#DejaVuSans-6e" x="305.371094"/>
       <use xlink:href="#DejaVuSans-67" x="368.75"/>
       <use xlink:href="#DejaVuSans-5f" x="432.226562"/>
       <use xlink:href="#DejaVuSans-72" x="482.226562"/>
       <use xlink:href="#DejaVuSans-65" x="521.089844"/>
       <use xlink:href="#DejaVuSans-6c" x="582.613281"/>
       <use xlink:href="#DejaVuSans-61" x="610.396484"/>
       <use xlink:href="#DejaVuSans-74" x="671.675781"/>
       <use xlink:href="#DejaVuSans-69" x="710.884766"/>
       <use xlink:href="#DejaVuSans-6f" x="738.667969"/>
       <use xlink:href="#DejaVuSans-6e" x="799.849609"/>
       <use xlink:href="#DejaVuSans-73" x="863.228516"/>
       <use xlink:href="#DejaVuSans-68" x="915.328125"/>
       <use xlink:href="#DejaVuSans-69" x="978.707031"/>
       <use xlink:href="#DejaVuSans-70" x="1006.490234"/>
       <use xlink:href="#DejaVuSans-5f" x="1069.966797"/>
       <use xlink:href="#DejaVuSans-73" x="1119.966797"/>
       <use xlink:href="#DejaVuSans-65" x="1172.066406"/>
       <use xlink:href="#DejaVuSans-78" x="1231.839844"/>
       <use xlink:href="#DejaVuSans-75" x="1291.019531"/>
       <use xlink:href="#DejaVuSans-61" x="1354.398438"/>
       <use xlink:href="#DejaVuSans-6c" x="1415.677734"/>
       <use xlink:href="#DejaVuSans-5f" x="1443.460938"/>
       <use xlink:href="#DejaVuSans-73" x="1493.460938"/>
       <use xlink:href="#DejaVuSans-65" x="1545.560547"/>
       <use xlink:href="#DejaVuSans-78" x="1605.333984"/>
      </g>
     </g>
    </g>
    <g id="xtick_8">
     <g id="line2d_8">
      <g>
       <use xlink:href="#md5a7a28efb" x="418.346396" y="332.928125" style="stroke: #000000; stroke-width: 0.8"/>
      </g>
     </g>
     <g id="text_8">
      <!-- 7_college_be_career_live -->
      <g transform="translate(328.821153 433.159049) rotate(-45) scale(0.1 -0.1)">
       <defs>
        <path id="DejaVuSans-37" d="M 525 4666 
L 3525 4666 
L 3525 4397 
L 1831 0 
L 1172 0 
L 2766 4134 
L 525 4134 
L 525 4666 
z
" transform="scale(0.015625)"/>
       </defs>
       <use xlink:href="#DejaVuSans-37"/>
       <use xlink:href="#DejaVuSans-5f" x="63.623047"/>
       <use xlink:href="#DejaVuSans-63" x="113.623047"/>
       <use xlink:href="#DejaVuSans-6f" x="168.603516"/>
       <use xlink:href="#DejaVuSans-6c" x="229.785156"/>
       <use xlink:href="#DejaVuSans-6c" x="257.568359"/>
       <use xlink:href="#DejaVuSans-65" x="285.351562"/>
       <use xlink:href="#DejaVuSans-67" x="346.875"/>
       <use xlink:href="#DejaVuSans-65" x="410.351562"/>
       <use xlink:href="#DejaVuSans-5f" x="471.875"/>
       <use xlink:href="#DejaVuSans-62" x="521.875"/>
       <use xlink:href="#DejaVuSans-65" x="585.351562"/>
       <use xlink:href="#DejaVuSans-5f" x="646.875"/>
       <use xlink:href="#DejaVuSans-63" x="696.875"/>
       <use xlink:href="#DejaVuSans-61" x="751.855469"/>
       <use xlink:href="#DejaVuSans-72" x="813.134766"/>
       <use xlink:href="#DejaVuSans-65" x="851.998047"/>
       <use xlink:href="#DejaVuSans-65" x="913.521484"/>
       <use xlink:href="#DejaVuSans-72" x="975.044922"/>
       <use xlink:href="#DejaVuSans-5f" x="1016.158203"/>
       <use xlink:href="#DejaVuSans-6c" x="1066.158203"/>
       <use xlink:href="#DejaVuSans-69" x="1093.941406"/>
       <use xlink:href="#DejaVuSans-76" x="1121.724609"/>
       <use xlink:href="#DejaVuSans-65" x="1180.904297"/>
      </g>
     </g>
    </g>
    <g id="xtick_9">
     <g id="line2d_9">
      <g>
       <use xlink:href="#md5a7a28efb" x="459.982396" y="332.928125" style="stroke: #000000; stroke-width: 0.8"/>
      </g>
     </g>
     <g id="text_9">
      <!-- 8_shave_shaving_hair_shaved -->
      <g transform="translate(351.812736 451.803466) rotate(-45) scale(0.1 -0.1)">
       <defs>
        <path id="DejaVuSans-38" d="M 2034 2216 
Q 1584 2216 1326 1975 
Q 1069 1734 1069 1313 
Q 1069 891 1326 650 
Q 1584 409 2034 409 
Q 2484 409 2743 651 
Q 3003 894 3003 1313 
Q 3003 1734 2745 1975 
Q 2488 2216 2034 2216 
z
M 1403 2484 
Q 997 2584 770 2862 
Q 544 3141 544 3541 
Q 544 4100 942 4425 
Q 1341 4750 2034 4750 
Q 2731 4750 3128 4425 
Q 3525 4100 3525 3541 
Q 3525 3141 3298 2862 
Q 3072 2584 2669 2484 
Q 3125 2378 3379 2068 
Q 3634 1759 3634 1313 
Q 3634 634 3220 271 
Q 2806 -91 2034 -91 
Q 1263 -91 848 271 
Q 434 634 434 1313 
Q 434 1759 690 2068 
Q 947 2378 1403 2484 
z
M 1172 3481 
Q 1172 3119 1398 2916 
Q 1625 2713 2034 2713 
Q 2441 2713 2670 2916 
Q 2900 3119 2900 3481 
Q 2900 3844 2670 4047 
Q 2441 4250 2034 4250 
Q 1625 4250 1398 4047 
Q 1172 3844 1172 3481 
z
" transform="scale(0.015625)"/>
       </defs>
       <use xlink:href="#DejaVuSans-38"/>
       <use xlink:href="#DejaVuSans-5f" x="63.623047"/>
       <use xlink:href="#DejaVuSans-73" x="113.623047"/>
       <use xlink:href="#DejaVuSans-68" x="165.722656"/>
       <use xlink:href="#DejaVuSans-61" x="229.101562"/>
       <use xlink:href="#DejaVuSans-76" x="290.380859"/>
       <use xlink:href="#DejaVuSans-65" x="349.560547"/>
       <use xlink:href="#DejaVuSans-5f" x="411.083984"/>
       <use xlink:href="#DejaVuSans-73" x="461.083984"/>
       <use xlink:href="#DejaVuSans-68" x="513.183594"/>
       <use xlink:href="#DejaVuSans-61" x="576.5625"/>
       <use xlink:href="#DejaVuSans-76" x="637.841797"/>
       <use xlink:href="#DejaVuSans-69" x="697.021484"/>
       <use xlink:href="#DejaVuSans-6e" x="724.804688"/>
       <use xlink:href="#DejaVuSans-67" x="788.183594"/>
       <use xlink:href="#DejaVuSans-5f" x="851.660156"/>
       <use xlink:href="#DejaVuSans-68" x="901.660156"/>
       <use xlink:href="#DejaVuSans-61" x="965.039062"/>
       <use xlink:href="#DejaVuSans-69" x="1026.318359"/>
       <use xlink:href="#DejaVuSans-72" x="1054.101562"/>
       <use xlink:href="#DejaVuSans-5f" x="1095.214844"/>
       <use xlink:href="#DejaVuSans-73" x="1145.214844"/>
       <use xlink:href="#DejaVuSans-68" x="1197.314453"/>
       <use xlink:href="#DejaVuSans-61" x="1260.693359"/>
       <use xlink:href="#DejaVuSans-76" x="1321.972656"/>
       <use xlink:href="#DejaVuSans-65" x="1381.152344"/>
       <use xlink:href="#DejaVuSans-64" x="1442.675781"/>
      </g>
     </g>
    </g>
    <g id="xtick_10">
     <g id="line2d_10">
      <g>
       <use xlink:href="#md5a7a28efb" x="501.618396" y="332.928125" style="stroke: #000000; stroke-width: 0.8"/>
      </g>
     </g>
     <g id="text_10">
      <!-- 9_wedding_marriage_engagement_bride -->
      <g transform="translate(356.028424 489.223778) rotate(-45) scale(0.1 -0.1)">
       <defs>
        <path id="DejaVuSans-39" d="M 703 97 
L 703 672 
Q 941 559 1184 500 
Q 1428 441 1663 441 
Q 2288 441 2617 861 
Q 2947 1281 2994 2138 
Q 2813 1869 2534 1725 
Q 2256 1581 1919 1581 
Q 1219 1581 811 2004 
Q 403 2428 403 3163 
Q 403 3881 828 4315 
Q 1253 4750 1959 4750 
Q 2769 4750 3195 4129 
Q 3622 3509 3622 2328 
Q 3622 1225 3098 567 
Q 2575 -91 1691 -91 
Q 1453 -91 1209 -44 
Q 966 3 703 97 
z
M 1959 2075 
Q 2384 2075 2632 2365 
Q 2881 2656 2881 3163 
Q 2881 3666 2632 3958 
Q 2384 4250 1959 4250 
Q 1534 4250 1286 3958 
Q 1038 3666 1038 3163 
Q 1038 2656 1286 2365 
Q 1534 2075 1959 2075 
z
" transform="scale(0.015625)"/>
       </defs>
       <use xlink:href="#DejaVuSans-39"/>
       <use xlink:href="#DejaVuSans-5f" x="63.623047"/>
       <use xlink:href="#DejaVuSans-77" x="113.623047"/>
       <use xlink:href="#DejaVuSans-65" x="195.410156"/>
       <use xlink:href="#DejaVuSans-64" x="256.933594"/>
       <use xlink:href="#DejaVuSans-64" x="320.410156"/>
       <use xlink:href="#DejaVuSans-69" x="383.886719"/>
       <use xlink:href="#DejaVuSans-6e" x="411.669922"/>
       <use xlink:href="#DejaVuSans-67" x="475.048828"/>
       <use xlink:href="#DejaVuSans-5f" x="538.525391"/>
       <use xlink:href="#DejaVuSans-6d" x="588.525391"/>
       <use xlink:href="#DejaVuSans-61" x="685.9375"/>
       <use xlink:href="#DejaVuSans-72" x="747.216797"/>
       <use xlink:href="#DejaVuSans-72" x="786.580078"/>
       <use xlink:href="#DejaVuSans-69" x="827.693359"/>
       <use xlink:href="#DejaVuSans-61" x="855.476562"/>
       <use xlink:href="#DejaVuSans-67" x="916.755859"/>
       <use xlink:href="#DejaVuSans-65" x="980.232422"/>
       <use xlink:href="#DejaVuSans-5f" x="1041.755859"/>
       <use xlink:href="#DejaVuSans-65" x="1091.755859"/>
       <use xlink:href="#DejaVuSans-6e" x="1153.279297"/>
       <use xlink:href="#DejaVuSans-67" x="1216.658203"/>
       <use xlink:href="#DejaVuSans-61" x="1280.134766"/>
       <use xlink:href="#DejaVuSans-67" x="1341.414062"/>
       <use xlink:href="#DejaVuSans-65" x="1404.890625"/>
       <use xlink:href="#DejaVuSans-6d" x="1466.414062"/>
       <use xlink:href="#DejaVuSans-65" x="1563.826172"/>
       <use xlink:href="#DejaVuSans-6e" x="1625.349609"/>
       <use xlink:href="#DejaVuSans-74" x="1688.728516"/>
       <use xlink:href="#DejaVuSans-5f" x="1727.9375"/>
       <use xlink:href="#DejaVuSans-62" x="1777.9375"/>
       <use xlink:href="#DejaVuSans-72" x="1841.414062"/>
       <use xlink:href="#DejaVuSans-69" x="1882.527344"/>
       <use xlink:href="#DejaVuSans-64" x="1910.310547"/>
       <use xlink:href="#DejaVuSans-65" x="1973.787109"/>
      </g>
     </g>
    </g>
   </g>
   <g id="matplotlib.axis_2">
    <g id="ytick_1">
     <g id="line2d_11">
      <defs>
       <path id="maf29ec0e43" d="M 0 0 
L -3.5 0 
" style="stroke: #000000; stroke-width: 0.8"/>
      </defs>
      <g>
       <use xlink:href="#maf29ec0e43" x="106.076396" y="332.928125" style="stroke: #000000; stroke-width: 0.8"/>
      </g>
     </g>
     <g id="text_11">
      <!-- 0.0 -->
      <g transform="translate(83.173271 336.727344) scale(0.1 -0.1)">
       <defs>
        <path id="DejaVuSans-2e" d="M 684 794 
L 1344 794 
L 1344 0 
L 684 0 
L 684 794 
z
" transform="scale(0.015625)"/>
       </defs>
       <use xlink:href="#DejaVuSans-30"/>
       <use xlink:href="#DejaVuSans-2e" x="63.623047"/>
       <use xlink:href="#DejaVuSans-30" x="95.410156"/>
      </g>
     </g>
    </g>
    <g id="ytick_2">
     <g id="line2d_12">
      <g>
       <use xlink:href="#maf29ec0e43" x="106.076396" y="273.764315" style="stroke: #000000; stroke-width: 0.8"/>
      </g>
     </g>
     <g id="text_12">
      <!-- 0.2 -->
      <g transform="translate(83.173271 277.563534) scale(0.1 -0.1)">
       <use xlink:href="#DejaVuSans-30"/>
       <use xlink:href="#DejaVuSans-2e" x="63.623047"/>
       <use xlink:href="#DejaVuSans-32" x="95.410156"/>
      </g>
     </g>
    </g>
    <g id="ytick_3">
     <g id="line2d_13">
      <g>
       <use xlink:href="#maf29ec0e43" x="106.076396" y="214.600506" style="stroke: #000000; stroke-width: 0.8"/>
      </g>
     </g>
     <g id="text_13">
      <!-- 0.4 -->
      <g transform="translate(83.173271 218.399725) scale(0.1 -0.1)">
       <use xlink:href="#DejaVuSans-30"/>
       <use xlink:href="#DejaVuSans-2e" x="63.623047"/>
       <use xlink:href="#DejaVuSans-34" x="95.410156"/>
      </g>
     </g>
    </g>
    <g id="ytick_4">
     <g id="line2d_14">
      <g>
       <use xlink:href="#maf29ec0e43" x="106.076396" y="155.436696" style="stroke: #000000; stroke-width: 0.8"/>
      </g>
     </g>
     <g id="text_14">
      <!-- 0.6 -->
      <g transform="translate(83.173271 159.235915) scale(0.1 -0.1)">
       <use xlink:href="#DejaVuSans-30"/>
       <use xlink:href="#DejaVuSans-2e" x="63.623047"/>
       <use xlink:href="#DejaVuSans-36" x="95.410156"/>
      </g>
     </g>
    </g>
    <g id="ytick_5">
     <g id="line2d_15">
      <g>
       <use xlink:href="#maf29ec0e43" x="106.076396" y="96.272887" style="stroke: #000000; stroke-width: 0.8"/>
      </g>
     </g>
     <g id="text_15">
      <!-- 0.8 -->
      <g transform="translate(83.173271 100.072106) scale(0.1 -0.1)">
       <use xlink:href="#DejaVuSans-30"/>
       <use xlink:href="#DejaVuSans-2e" x="63.623047"/>
       <use xlink:href="#DejaVuSans-38" x="95.410156"/>
      </g>
     </g>
    </g>
    <g id="ytick_6">
     <g id="line2d_16">
      <g>
       <use xlink:href="#maf29ec0e43" x="106.076396" y="37.109077" style="stroke: #000000; stroke-width: 0.8"/>
      </g>
     </g>
     <g id="text_16">
      <!-- 1.0 -->
      <g transform="translate(83.173271 40.908296) scale(0.1 -0.1)">
       <use xlink:href="#DejaVuSans-31"/>
       <use xlink:href="#DejaVuSans-2e" x="63.623047"/>
       <use xlink:href="#DejaVuSans-30" x="95.410156"/>
      </g>
     </g>
    </g>
   </g>
   <g id="line2d_17">
    <path d="M 106.076396 185.018601 
L 522.436396 185.018601 
" clip-path="url(#p14cba6550e)" style="fill: none; stroke-dasharray: 5.55,2.4; stroke-dashoffset: 0; stroke: #000000; stroke-width: 1.5"/>
   </g>
   <g id="patch_23">
    <path d="M 106.076396 332.928125 
L 106.076396 22.318125 
" style="fill: none; stroke: #000000; stroke-width: 0.8; stroke-linejoin: miter; stroke-linecap: square"/>
   </g>
   <g id="patch_24">
    <path d="M 522.436396 332.928125 
L 522.436396 22.318125 
" style="fill: none; stroke: #000000; stroke-width: 0.8; stroke-linejoin: miter; stroke-linecap: square"/>
   </g>
   <g id="patch_25">
    <path d="M 106.076396 332.928125 
L 522.436396 332.928125 
" style="fill: none; stroke: #000000; stroke-width: 0.8; stroke-linejoin: miter; stroke-linecap: square"/>
   </g>
   <g id="patch_26">
    <path d="M 106.076396 22.318125 
L 522.436396 22.318125 
" style="fill: none; stroke: #000000; stroke-width: 0.8; stroke-linejoin: miter; stroke-linecap: square"/>
   </g>
   <g id="text_17">
    <!-- Share of AskMen and AskWomen per topic (unweighted) -->
    <g transform="translate(145.071396 16.318125) scale(0.12 -0.12)">
     <defs>
      <path id="DejaVuSans-53" d="M 3425 4513 
L 3425 3897 
Q 3066 4069 2747 4153 
Q 2428 4238 2131 4238 
Q 1616 4238 1336 4038 
Q 1056 3838 1056 3469 
Q 1056 3159 1242 3001 
Q 1428 2844 1947 2747 
L 2328 2669 
Q 3034 2534 3370 2195 
Q 3706 1856 3706 1288 
Q 3706 609 3251 259 
Q 2797 -91 1919 -91 
Q 1588 -91 1214 -16 
Q 841 59 441 206 
L 441 856 
Q 825 641 1194 531 
Q 1563 422 1919 422 
Q 2459 422 2753 634 
Q 3047 847 3047 1241 
Q 3047 1584 2836 1778 
Q 2625 1972 2144 2069 
L 1759 2144 
Q 1053 2284 737 2584 
Q 422 2884 422 3419 
Q 422 4038 858 4394 
Q 1294 4750 2059 4750 
Q 2388 4750 2728 4690 
Q 3069 4631 3425 4513 
z
" transform="scale(0.015625)"/>
      <path id="DejaVuSans-20" transform="scale(0.015625)"/>
      <path id="DejaVuSans-41" d="M 2188 4044 
L 1331 1722 
L 3047 1722 
L 2188 4044 
z
M 1831 4666 
L 2547 4666 
L 4325 0 
L 3669 0 
L 3244 1197 
L 1141 1197 
L 716 0 
L 50 0 
L 1831 4666 
z
" transform="scale(0.015625)"/>
      <path id="DejaVuSans-4d" d="M 628 4666 
L 1569 4666 
L 2759 1491 
L 3956 4666 
L 4897 4666 
L 4897 0 
L 4281 0 
L 4281 4097 
L 3078 897 
L 2444 897 
L 1241 4097 
L 1241 0 
L 628 0 
L 628 4666 
z
" transform="scale(0.015625)"/>
      <path id="DejaVuSans-57" d="M 213 4666 
L 850 4666 
L 1831 722 
L 2809 4666 
L 3519 4666 
L 4500 722 
L 5478 4666 
L 6119 4666 
L 4947 0 
L 4153 0 
L 3169 4050 
L 2175 0 
L 1381 0 
L 213 4666 
z
" transform="scale(0.015625)"/>
      <path id="DejaVuSans-28" d="M 1984 4856 
Q 1566 4138 1362 3434 
Q 1159 2731 1159 2009 
Q 1159 1288 1364 580 
Q 1569 -128 1984 -844 
L 1484 -844 
Q 1016 -109 783 600 
Q 550 1309 550 2009 
Q 550 2706 781 3412 
Q 1013 4119 1484 4856 
L 1984 4856 
z
" transform="scale(0.015625)"/>
      <path id="DejaVuSans-29" d="M 513 4856 
L 1013 4856 
Q 1481 4119 1714 3412 
Q 1947 2706 1947 2009 
Q 1947 1309 1714 600 
Q 1481 -109 1013 -844 
L 513 -844 
Q 928 -128 1133 580 
Q 1338 1288 1338 2009 
Q 1338 2731 1133 3434 
Q 928 4138 513 4856 
z
" transform="scale(0.015625)"/>
     </defs>
     <use xlink:href="#DejaVuSans-53"/>
     <use xlink:href="#DejaVuSans-68" x="63.476562"/>
     <use xlink:href="#DejaVuSans-61" x="126.855469"/>
     <use xlink:href="#DejaVuSans-72" x="188.134766"/>
     <use xlink:href="#DejaVuSans-65" x="226.998047"/>
     <use xlink:href="#DejaVuSans-20" x="288.521484"/>
     <use xlink:href="#DejaVuSans-6f" x="320.308594"/>
     <use xlink:href="#DejaVuSans-66" x="381.490234"/>
     <use xlink:href="#DejaVuSans-20" x="416.695312"/>
     <use xlink:href="#DejaVuSans-41" x="448.482422"/>
     <use xlink:href="#DejaVuSans-73" x="516.890625"/>
     <use xlink:href="#DejaVuSans-6b" x="568.990234"/>
     <use xlink:href="#DejaVuSans-4d" x="626.900391"/>
     <use xlink:href="#DejaVuSans-65" x="713.179688"/>
     <use xlink:href="#DejaVuSans-6e" x="774.703125"/>
     <use xlink:href="#DejaVuSans-20" x="838.082031"/>
     <use xlink:href="#DejaVuSans-61" x="869.869141"/>
     <use xlink:href="#DejaVuSans-6e" x="931.148438"/>
     <use xlink:href="#DejaVuSans-64" x="994.527344"/>
     <use xlink:href="#DejaVuSans-20" x="1058.003906"/>
     <use xlink:href="#DejaVuSans-41" x="1089.791016"/>
     <use xlink:href="#DejaVuSans-73" x="1158.199219"/>
     <use xlink:href="#DejaVuSans-6b" x="1210.298828"/>
     <use xlink:href="#DejaVuSans-57" x="1268.208984"/>
     <use xlink:href="#DejaVuSans-6f" x="1361.210938"/>
     <use xlink:href="#DejaVuSans-6d" x="1422.392578"/>
     <use xlink:href="#DejaVuSans-65" x="1519.804688"/>
     <use xlink:href="#DejaVuSans-6e" x="1581.328125"/>
     <use xlink:href="#DejaVuSans-20" x="1644.707031"/>
     <use xlink:href="#DejaVuSans-70" x="1676.494141"/>
     <use xlink:href="#DejaVuSans-65" x="1739.970703"/>
     <use xlink:href="#DejaVuSans-72" x="1801.494141"/>
     <use xlink:href="#DejaVuSans-20" x="1842.607422"/>
     <use xlink:href="#DejaVuSans-74" x="1874.394531"/>
     <use xlink:href="#DejaVuSans-6f" x="1913.603516"/>
     <use xlink:href="#DejaVuSans-70" x="1974.785156"/>
     <use xlink:href="#DejaVuSans-69" x="2038.261719"/>
     <use xlink:href="#DejaVuSans-63" x="2066.044922"/>
     <use xlink:href="#DejaVuSans-20" x="2121.025391"/>
     <use xlink:href="#DejaVuSans-28" x="2152.8125"/>
     <use xlink:href="#DejaVuSans-75" x="2191.826172"/>
     <use xlink:href="#DejaVuSans-6e" x="2255.205078"/>
     <use xlink:href="#DejaVuSans-77" x="2318.583984"/>
     <use xlink:href="#DejaVuSans-65" x="2400.371094"/>
     <use xlink:href="#DejaVuSans-69" x="2461.894531"/>
     <use xlink:href="#DejaVuSans-67" x="2489.677734"/>
     <use xlink:href="#DejaVuSans-68" x="2553.154297"/>
     <use xlink:href="#DejaVuSans-74" x="2616.533203"/>
     <use xlink:href="#DejaVuSans-65" x="2655.742188"/>
     <use xlink:href="#DejaVuSans-64" x="2717.265625"/>
     <use xlink:href="#DejaVuSans-29" x="2780.742188"/>
    </g>
   </g>
   <g id="legend_1">
    <g id="patch_27">
     <path d="M 270.511083 327.928125 
L 358.001708 327.928125 
Q 360.001708 327.928125 360.001708 325.928125 
L 360.001708 297.571875 
Q 360.001708 295.571875 358.001708 295.571875 
L 270.511083 295.571875 
Q 268.511083 295.571875 268.511083 297.571875 
L 268.511083 325.928125 
Q 268.511083 327.928125 270.511083 327.928125 
z
" style="fill: #ffffff; opacity: 0.8; stroke: #cccccc; stroke-linejoin: miter"/>
    </g>
    <g id="patch_28">
     <path d="M 272.511083 307.170312 
L 292.511083 307.170312 
L 292.511083 300.170312 
L 272.511083 300.170312 
z
" style="fill: #0000ff"/>
    </g>
    <g id="text_18">
     <!-- AskMen -->
     <g transform="translate(300.511083 307.170312) scale(0.1 -0.1)">
      <use xlink:href="#DejaVuSans-41"/>
      <use xlink:href="#DejaVuSans-73" x="68.408203"/>
      <use xlink:href="#DejaVuSans-6b" x="120.507812"/>
      <use xlink:href="#DejaVuSans-4d" x="178.417969"/>
      <use xlink:href="#DejaVuSans-65" x="264.697266"/>
      <use xlink:href="#DejaVuSans-6e" x="326.220703"/>
     </g>
    </g>
    <g id="patch_29">
     <path d="M 272.511083 321.848437 
L 292.511083 321.848437 
L 292.511083 314.848437 
L 272.511083 314.848437 
z
" style="fill: #ff0000"/>
    </g>
    <g id="text_19">
     <!-- AskWomen -->
     <g transform="translate(300.511083 321.848437) scale(0.1 -0.1)">
      <use xlink:href="#DejaVuSans-41"/>
      <use xlink:href="#DejaVuSans-73" x="68.408203"/>
      <use xlink:href="#DejaVuSans-6b" x="120.507812"/>
      <use xlink:href="#DejaVuSans-57" x="178.417969"/>
      <use xlink:href="#DejaVuSans-6f" x="271.419922"/>
      <use xlink:href="#DejaVuSans-6d" x="332.601562"/>
      <use xlink:href="#DejaVuSans-65" x="430.013672"/>
      <use xlink:href="#DejaVuSans-6e" x="491.537109"/>
     </g>
    </g>
   </g>
  </g>
 </g>
 <defs>
  <clipPath id="p14cba6550e">
   <rect x="106.076396" y="22.318125" width="416.36" height="310.61"/>
  </clipPath>
 </defs>
</svg>
